<?xml version="1.0" standalone="no"?>
<!DOCTYPE svg PUBLIC "-//W3C//DTD SVG 20010904//EN"
 "http://www.w3.org/TR/2001/REC-SVG-20010904/DTD/svg10.dtd">
<svg version="1.0" xmlns="http://www.w3.org/2000/svg"
 width="2944.000000pt" height="2944.000000pt" viewBox="0 0 2944.000000 2944.000000"
 preserveAspectRatio="xMidYMid meet">
<metadata>
Created by potrace 1.11, written by Peter Selinger 2001-2013
</metadata>
<g transform="translate(0.000000,2944.000000) scale(0.100000,-0.100000)"
fill="#000000" stroke="none">
<path d="M14540 28748 c-127 -76 -506 -299 -574 -338 -49 -27 -458 -269 -594
-351 -68 -41 -136 -81 -151 -91 -222 -130 -725 -457 -951 -616 -521 -369 -953
-738 -1240 -1062 -36 -40 -72 -80 -81 -89 -8 -9 -42 -50 -76 -91 -422 -526
-646 -1043 -690 -1590 -11 -134 -3 -679 12 -796 2 -16 6 -76 10 -134 8 -124
13 -189 19 -250 3 -25 8 -76 11 -115 3 -38 8 -81 10 -95 2 -14 6 -56 10 -95 3
-38 8 -81 10 -95 5 -35 13 -104 20 -175 4 -33 8 -67 10 -75 2 -8 7 -40 10 -70
7 -61 10 -84 20 -148 4 -23 8 -52 10 -65 6 -49 26 -185 29 -203 2 -10 9 -55
16 -99 7 -44 14 -89 16 -100 2 -11 9 -49 14 -85 6 -36 17 -99 25 -140 8 -41
16 -88 18 -105 6 -40 42 -230 74 -385 13 -69 27 -134 29 -145 2 -11 11 -54 20
-95 21 -97 30 -139 38 -180 2 -8 6 -26 9 -40 3 -14 13 -54 21 -90 8 -36 27
-114 41 -175 15 -60 28 -117 30 -125 4 -16 33 -134 40 -160 42 -161 74 -281
106 -395 22 -77 42 -147 44 -155 33 -146 290 -886 355 -1025 5 -11 30 -67 55
-125 25 -57 81 -172 123 -255 224 -433 445 -654 647 -647 63 3 157 55 233 131
105 105 179 208 303 426 63 110 259 496 259 510 0 2 14 35 31 72 17 38 49 109
70 158 22 50 44 99 49 110 5 11 41 99 80 195 39 96 75 184 80 195 5 11 39 97
75 190 36 94 70 179 75 190 5 11 73 187 150 390 135 353 180 471 256 668 19
48 50 129 70 180 19 50 42 107 51 126 8 18 16 39 18 45 1 6 7 22 12 36 6 14
25 61 43 105 18 44 37 91 43 105 5 14 11 30 12 36 2 6 14 35 27 65 14 30 49
110 78 179 60 141 242 516 292 602 72 123 93 155 141 218 59 75 85 101 146
141 101 65 199 17 336 -166 85 -112 232 -381 339 -617 14 -32 38 -84 52 -115
15 -32 51 -116 81 -188 30 -71 61 -143 68 -160 24 -56 102 -249 149 -370 26
-66 51 -129 56 -140 14 -30 230 -585 230 -591 0 -2 8 -23 19 -47 10 -23 34
-82 54 -132 19 -49 68 -173 108 -275 117 -299 304 -750 387 -930 117 -258 152
-331 226 -473 114 -222 238 -434 302 -517 208 -268 343 -356 504 -325 82 16
212 116 308 238 54 68 122 164 122 172 0 2 16 30 36 61 86 135 246 481 356
768 76 200 247 713 263 786 2 8 19 71 40 140 20 69 38 132 40 141 2 10 17 66
33 125 48 172 132 523 182 754 38 177 68 319 73 350 3 14 17 88 32 165 51 271
76 409 90 510 3 22 10 63 15 90 5 28 12 70 15 95 3 25 12 86 20 135 7 50 17
115 20 145 4 30 8 57 10 60 2 3 6 37 9 75 4 39 9 79 11 90 3 11 7 45 10 75 3
30 7 69 10 85 5 39 15 138 21 195 2 25 6 68 8 95 8 82 17 177 21 224 3 24 7
85 10 135 3 50 8 118 10 151 17 235 24 712 12 840 -34 369 -169 763 -387 1125
-70 117 -169 263 -182 268 -4 2 -8 8 -8 13 0 13 -84 121 -201 259 -35 41 -73
86 -84 99 -33 40 -374 382 -446 446 -167 151 -303 264 -487 405 -92 72 -171
133 -177 138 -26 20 -299 214 -370 263 -44 30 -81 57 -83 62 -2 4 -7 7 -11 7
-4 0 -85 51 -179 113 -150 98 -224 145 -405 258 -23 14 -79 49 -125 77 -45 29
-84 52 -87 52 -2 0 -40 23 -85 50 -118 73 -1016 594 -1200 697 -14 7 -54 32
-89 53 -34 22 -68 40 -75 40 -6 0 -72 -37 -146 -82z"/>
<path d="M4988 21235 c-2 -1 -43 -5 -93 -9 -49 -3 -99 -7 -110 -10 -11 -2 -45
-7 -75 -11 -258 -33 -646 -151 -980 -297 -496 -217 -940 -489 -1614 -988 -84
-62 -423 -333 -526 -420 -267 -226 -581 -498 -680 -590 -9 -8 -52 -46 -96 -85
-43 -38 -81 -72 -84 -76 -3 -3 -57 -52 -120 -109 -63 -57 -120 -109 -126 -114
-6 -6 -44 -40 -84 -76 -40 -36 -89 -80 -108 -98 -20 -18 -63 -56 -96 -85 -54
-47 -92 -81 -167 -148 l-27 -24 24 -100 c13 -55 26 -113 29 -130 3 -16 17 -77
30 -135 32 -140 36 -154 100 -452 30 -141 57 -263 60 -270 2 -7 6 -26 8 -43 3
-16 14 -68 25 -115 26 -104 42 -177 48 -210 3 -14 7 -33 10 -42 3 -10 8 -30
10 -45 8 -44 101 -423 146 -593 84 -323 185 -665 263 -890 20 -58 37 -109 39
-115 2 -5 5 -17 8 -25 3 -8 14 -37 23 -65 77 -221 215 -544 328 -770 223 -443
447 -765 727 -1045 376 -376 692 -551 1320 -729 181 -51 389 -107 431 -115 13
-2 31 -7 39 -10 8 -3 26 -7 40 -10 14 -2 87 -18 163 -36 77 -17 151 -34 165
-37 15 -3 32 -6 37 -7 6 -2 28 -6 50 -10 22 -5 61 -14 88 -21 26 -8 48 -14 50
-14 7 2 111 -15 162 -27 33 -7 83 -16 110 -20 28 -3 52 -8 55 -9 3 -2 48 -11
100 -20 52 -9 106 -18 120 -20 85 -15 244 -41 305 -50 22 -3 81 -12 130 -20
50 -8 110 -16 135 -20 25 -3 56 -8 70 -10 14 -3 48 -7 75 -10 28 -3 59 -7 70
-9 11 -2 49 -7 85 -11 36 -4 72 -8 80 -10 8 -2 44 -6 80 -10 90 -10 108 -12
160 -19 25 -3 74 -8 110 -12 36 -3 73 -8 82 -9 10 -2 56 -7 102 -10 47 -3 94
-8 104 -10 11 -2 60 -6 108 -9 49 -4 109 -9 134 -11 25 -3 81 -7 125 -10 44
-2 116 -7 160 -10 500 -36 1272 -40 1605 -10 25 2 79 7 120 10 41 3 84 8 95
10 11 2 43 6 70 9 89 10 138 17 220 32 44 9 94 18 110 20 53 8 248 65 315 92
225 90 345 205 355 341 9 140 -99 334 -339 606 -111 126 -401 408 -576 561
-25 21 -52 46 -60 54 -8 9 -80 71 -160 139 -80 68 -156 133 -170 145 -53 45
-317 263 -365 301 -27 22 -52 42 -55 45 -4 5 -48 40 -123 100 -11 8 -24 20
-31 25 -6 6 -117 96 -246 200 -129 104 -242 195 -250 202 -8 7 -69 56 -136
110 -1090 881 -1519 1317 -1526 1551 -2 79 86 157 237 210 90 32 165 51 295
77 41 8 84 16 95 19 19 3 75 12 135 21 14 2 48 6 75 10 28 3 59 7 70 9 27 5
127 15 300 30 39 4 86 9 105 11 35 5 103 10 238 20 332 24 340 24 452 30 58 3
132 7 165 10 33 3 105 7 160 10 55 3 129 8 165 10 36 2 119 6 185 10 66 3 143
8 170 10 28 3 93 7 145 10 127 7 240 14 325 20 39 3 108 7 155 10 47 3 101 8
120 10 19 2 73 6 120 10 47 3 105 7 130 10 25 2 74 7 110 10 36 3 81 8 101 11
20 2 58 6 85 9 27 2 72 7 99 10 28 3 68 8 90 11 22 2 56 6 75 9 19 3 55 7 80
10 25 3 70 10 100 15 30 5 73 11 95 15 22 3 74 12 115 20 41 8 87 17 103 20
15 3 39 7 55 10 65 13 234 59 317 86 235 78 395 193 427 309 34 121 -6 255
-133 445 -37 55 -80 114 -95 132 -16 17 -48 53 -71 80 -422 492 -1466 1243
-2624 1891 -76 42 -258 142 -324 177 -123 66 -726 369 -840 422 -60 28 -148
69 -195 91 -244 113 -744 320 -975 402 -49 18 -99 36 -110 41 -30 13 -285 98
-309 104 -12 2 -46 11 -76 19 -30 8 -68 17 -85 20 -16 3 -41 8 -55 11 -42 10
-132 23 -195 30 -60 7 -391 15 -397 10z"/>
<path d="M24377 21204 c-1 -2 -42 -5 -91 -9 -49 -3 -92 -8 -95 -10 -3 -1 -29
-6 -58 -9 -62 -7 -202 -38 -298 -66 -38 -11 -77 -22 -85 -25 -26 -7 -321 -112
-405 -143 -216 -81 -629 -253 -825 -344 -36 -17 -90 -42 -120 -55 -240 -108
-825 -401 -1090 -545 -41 -23 -97 -53 -125 -68 -70 -38 -313 -173 -355 -198
-19 -12 -46 -27 -60 -35 -63 -35 -115 -66 -288 -170 -102 -62 -204 -123 -226
-136 -156 -91 -702 -453 -906 -601 -797 -576 -1268 -1064 -1334 -1382 -25
-120 -6 -207 62 -276 78 -80 205 -142 417 -203 82 -24 324 -77 385 -84 8 -1
35 -5 60 -9 62 -11 87 -14 145 -21 28 -4 61 -8 75 -10 14 -2 52 -7 85 -11 33
-3 67 -8 75 -9 8 -2 51 -6 95 -10 44 -4 91 -9 105 -11 14 -2 59 -6 100 -9 41
-3 93 -7 115 -10 22 -2 81 -7 130 -10 50 -4 115 -8 145 -11 69 -5 165 -12 295
-19 55 -3 129 -8 165 -10 36 -3 117 -7 180 -10 63 -3 153 -7 200 -10 47 -3
137 -8 200 -11 114 -5 151 -7 385 -19 66 -4 152 -8 190 -10 169 -8 342 -19
490 -30 33 -3 96 -7 140 -10 44 -3 100 -7 125 -10 25 -2 81 -7 125 -10 44 -4
92 -9 106 -11 14 -2 52 -6 85 -9 32 -3 75 -7 94 -10 19 -3 58 -7 85 -11 66 -7
134 -18 310 -48 11 -2 61 -14 110 -26 50 -12 97 -23 106 -25 9 -2 47 -16 85
-30 211 -83 262 -170 191 -325 -21 -45 -84 -144 -117 -184 -262 -312 -567
-591 -1345 -1230 -132 -109 -259 -214 -283 -233 -23 -20 -71 -59 -106 -87
-183 -148 -752 -621 -776 -646 -8 -8 -36 -32 -62 -53 -26 -21 -53 -44 -60 -50
-7 -7 -51 -46 -98 -87 -47 -41 -90 -79 -96 -85 -6 -5 -49 -44 -95 -85 -108
-96 -510 -497 -576 -575 -28 -33 -65 -76 -82 -95 -17 -19 -31 -38 -31 -42 0
-4 -6 -13 -14 -21 -34 -34 -132 -189 -166 -262 -92 -197 -79 -320 45 -433 104
-95 345 -192 590 -236 17 -3 41 -8 55 -11 78 -15 81 -16 225 -34 147 -19 190
-23 380 -35 341 -23 899 -23 1290 -1 364 21 477 30 750 55 178 17 208 20 245
25 19 2 67 7 105 11 39 3 77 8 85 9 8 2 44 6 80 10 36 4 72 8 80 10 8 2 44 6
80 10 36 4 73 9 84 11 10 2 44 6 75 10 31 3 65 8 76 10 11 3 54 9 95 15 41 5
86 12 100 15 14 2 41 7 60 9 45 7 90 14 115 19 11 2 40 7 65 10 25 3 56 8 70
11 14 3 34 7 45 9 11 2 40 7 65 10 25 4 65 11 90 16 25 5 95 18 155 30 158 29
158 29 185 35 14 3 34 7 45 9 64 12 236 49 270 58 22 5 51 12 65 15 21 3 313
74 435 105 22 5 47 11 55 13 8 2 116 33 240 69 262 75 430 132 536 181 41 19
77 35 79 35 2 0 52 28 112 61 99 57 184 112 273 178 153 114 348 302 494 475
95 112 326 433 326 453 0 2 13 23 29 46 71 104 299 542 370 712 5 11 21 49 36
85 15 36 35 83 45 105 58 130 202 536 288 810 102 324 226 785 302 1120 7 28
13 57 15 65 26 109 109 480 136 611 10 52 22 106 25 120 3 13 7 35 10 49 3 14
12 57 20 95 8 39 17 79 19 90 3 11 11 52 19 90 9 39 17 81 20 95 2 14 9 45 15
70 10 46 15 71 26 125 3 17 10 46 15 65 9 33 12 50 25 118 3 15 10 41 14 57
22 75 25 69 -72 152 -51 43 -99 85 -107 93 -15 14 -141 126 -184 163 -20 18
-148 131 -171 152 -58 53 -122 110 -179 160 -38 33 -76 67 -85 76 -31 30 -572
500 -646 560 -11 9 -51 43 -90 76 -104 88 -418 340 -510 408 -44 33 -82 62
-85 65 -6 7 -238 175 -305 221 -27 19 -51 37 -53 42 -2 4 -10 7 -17 7 -7 0
-15 3 -17 8 -4 9 -167 117 -315 209 -384 237 -770 423 -1123 540 -80 26 -351
97 -410 107 -19 3 -44 8 -56 10 -12 2 -45 7 -74 11 -29 4 -60 8 -69 10 -70 13
-464 29 -474 19z"/>
<path d="M9628 11545 c-2 -2 -26 -7 -53 -11 -62 -8 -252 -70 -362 -117 -111
-48 -346 -171 -473 -247 -168 -101 -485 -309 -595 -392 -5 -4 -92 -68 -191
-142 -100 -74 -190 -141 -200 -149 -11 -9 -91 -73 -179 -143 -137 -109 -447
-366 -481 -399 -6 -6 -35 -31 -64 -56 -28 -24 -62 -53 -74 -64 -50 -45 -176
-157 -197 -176 -29 -25 -191 -174 -313 -289 -114 -106 -644 -636 -751 -750
-165 -176 -232 -248 -290 -315 -33 -37 -65 -73 -70 -79 -6 -6 -56 -63 -110
-126 -411 -476 -690 -848 -803 -1075 -108 -215 -201 -484 -228 -661 -3 -21 -9
-57 -14 -79 -5 -22 -12 -67 -15 -100 -4 -33 -8 -67 -10 -75 -25 -98 -25 -669
0 -875 2 -16 6 -57 10 -90 4 -33 8 -71 10 -85 3 -14 7 -43 10 -65 8 -54 34
-214 40 -245 3 -14 8 -38 11 -55 14 -77 56 -271 75 -342 11 -43 23 -89 25
-103 25 -126 180 -626 296 -948 107 -300 109 -305 123 -337 7 -16 48 -118 90
-225 66 -168 124 -306 181 -437 8 -18 20 -48 28 -65 15 -37 296 -674 334 -758
13 -30 35 -80 49 -110 13 -30 33 -73 43 -95 10 -22 42 -94 70 -160 29 -66 60
-138 70 -160 10 -22 27 -61 38 -87 19 -43 25 -48 54 -49 75 -4 131 -8 268 -24
19 -2 69 -7 110 -10 41 -3 91 -8 110 -10 19 -2 64 -7 100 -10 36 -4 81 -8 100
-10 19 -2 64 -7 100 -10 36 -3 81 -8 100 -10 19 -2 64 -7 100 -10 36 -3 81 -8
100 -10 19 -2 67 -6 105 -10 39 -3 88 -8 110 -10 22 -2 72 -7 110 -10 39 -3
90 -8 115 -10 25 -2 81 -7 125 -10 90 -7 143 -12 230 -19 33 -3 110 -8 170
-11 61 -4 126 -8 145 -10 113 -10 462 -19 770 -19 315 0 457 4 650 19 154 11
226 17 241 20 10 2 49 7 86 10 37 4 75 8 83 10 8 2 35 7 60 10 430 58 885 190
1219 353 320 156 630 391 831 631 25 29 50 59 55 65 6 6 25 31 43 56 18 25 48
65 66 90 162 221 534 813 701 1115 15 28 62 113 105 190 42 77 97 176 120 220
63 117 367 722 427 850 28 61 73 155 98 210 55 116 245 545 245 551 0 2 9 23
19 47 51 110 192 463 283 707 134 360 302 875 343 1055 2 11 16 64 29 117 25
98 72 311 82 377 4 20 7 41 8 46 3 9 11 65 22 140 12 88 19 215 18 337 -3 265
-69 432 -198 501 -35 19 -57 22 -151 22 -130 -1 -232 -26 -439 -107 -166 -65
-552 -257 -676 -337 -14 -8 -27 -16 -30 -16 -10 -1 -356 -209 -548 -329 -106
-67 -201 -126 -210 -131 -9 -6 -28 -18 -42 -27 -14 -8 -135 -87 -270 -174
-253 -162 -413 -266 -560 -363 -47 -31 -89 -58 -95 -61 -5 -3 -57 -36 -115
-74 -165 -108 -226 -147 -406 -262 -180 -114 -590 -364 -598 -364 -2 0 -40
-21 -83 -47 -122 -72 -418 -217 -525 -257 -179 -66 -304 -83 -374 -50 -39 19
-76 75 -94 142 -25 95 -19 304 16 552 5 34 27 165 39 225 3 17 10 53 15 80 5
28 12 61 15 75 2 14 7 34 9 45 2 11 23 101 46 200 22 99 43 191 46 205 3 14 7
33 10 42 3 9 7 25 9 35 2 10 20 83 40 163 20 79 38 151 40 160 2 8 13 51 24
95 12 44 35 130 50 190 16 61 61 233 101 384 39 150 73 281 75 290 9 38 64
247 69 261 3 8 8 26 10 40 3 14 34 144 71 289 36 145 68 280 71 300 3 20 8 39
9 42 5 7 73 320 90 409 3 14 9 48 15 75 17 81 20 97 31 165 5 36 14 83 19 105
5 22 11 65 15 95 3 30 8 62 10 70 2 8 7 44 10 80 3 36 8 72 10 80 6 25 18 239
18 330 1 189 -20 310 -72 412 -60 119 -139 164 -293 166 -47 0 -88 -1 -90 -3z"/>
</g>
</svg>
